<svg width="255" height="76" xmlns="http://www.w3.org/2000/svg">
  <!-- Created with Method Draw - http://github.com/duopixel/Method-Draw/ -->

  <g>
    <title>background</title>
    <g display="none" overflow="visible" y="0" x="0" height="100%" width="100%" id="canvasGrid">
      <rect fill="url(#gridpattern)" stroke-width="0" y="0" x="0" height="100%" width="100%"/>
    </g>
  </g>
  <g>
    <title>Layer 1</title>
    <defs>
      <style type="text/css">
        <![CDATA[
    .fil0 {fill:#434242}
    .fil1 {fill:#72C81E}
    .fil2 {fill:#434242;fill-rule:nonzero}
   ]]>
      </style>
    </defs>
    <g stroke="null" id="svg_15">
      <g stroke="null" transform="matrix(0.053155656680617315,0,0,0.053155656680617315,-14683.868111411046,-13923.311440037482) " id="svg_6">
        <metadata stroke="null" transform="translate(0,-0.004708005581051111) translate(-1172.167236328125,0) translate(1172.189453125,0) translate(-0.011019410565495491,0) translate(0,-27.89533042907715) translate(0,0.00011306346277706325) translate(0,0.00011306346277706325) translate(-1617.9483642578125,0) translate(0.01862221769988537,0) translate(-0.012663107365369797,0) translate(0.01862221769988537,0) translate(-0.012663107365369797,0) translate(83.67483520507812,0) translate(83.70729064941406,0) translate(0,-3.7030112743377686) translate(-0.010322028771042824,0) translate(-0.010322028771042824,0) translate(0.02096329629421234,0) translate(-83.69782257080078,0) translate(-167.38638305664062,0) translate(-306.8262634277344,0) translate(-390.53875732421875,0) translate(-83.6901626586914,0) translate(-167.3788299560547,0) translate(83.68143463134766,0) translate(167.37010192871094,0) translate(83.6848373413086,0) translate(167.37350463867188,0) translate(83.68846130371094,0) translate(167.37692260742188,0) translate(251.06686401367188,0) translate(251.0702667236328,0) translate(251.04249572753906,0) translate(251.07723999023438,0) translate(167.3620147705078,0) translate(167.3643035888672,0) translate(390.5541076660156,0) translate(167.3616485595703,0) translate(306.83270263671875,0) translate(474.2327575683594,0) translate(725.2914428710938,0) translate(306.8534851074219,0) translate(474.2223205566406,0) translate(390.5310974121094,0) translate(474.2135925292969,0) translate(474.2408447265625,0) translate(641.5807495117188,0) translate(251.0479278564453,0) translate(-167.3547821044922,0) translate(-83.70079803466797,0) translate(-251.0453643798828,0) translate(-251.0491943359375,0) translate(-251.08389282226562,0) translate(-251.05601501464844,0) translate(-251.05941772460938,0) translate(-167.37542724609375,0) translate(-83.69037628173828,0) translate(-167.34776306152344,0) translate(-251.0687713623047,0) translate(-251.0721893310547,0) translate(-306.8258361816406,0) translate(-251.06951904296875,0) translate(-251.07302856445312,0) translate(-167.35775756835938,0) translate(-251.047607421875,0) translate(-251.0823516845703,0) translate(-306.8358154296875,0) translate(-251.04840087890625,0) translate(-167.39564514160156,0) translate(0.00826693419367075,0) translate(0.00826693419367075,0) translate(83.66450500488281,0) translate(0.946926474571228,0) translate(-14.759459495544434,-295.189208984375) translate(-1687.791748046875,-3188.05126953125) translate(0,0.024687739089131355) translate(0,83.6810073852539) translate(0,167.3696746826172) translate(0,83.68441772460938) translate(0,167.37307739257812) translate(0,251.0628204345703) translate(0,83.69143676757812) translate(0,167.34881591796875) translate(0,83.69483947753906) translate(0,167.38351440429688) translate(0,83.66717529296875) translate(0,167.3869171142578) translate(0,83.67057800292969) translate(0,167.3904266357422) translate(0,306.8614807128906) translate(0,251.04281616210938) translate(0,167.39010620117188) translate(0,83.67366790771484) translate(0,-167.38766479492188) translate(0,-167.3587188720703) translate(0,-306.8610534667969) translate(0,-390.5110778808594) translate(0,-251.06857299804688) translate(0,-390.5408935546875) translate(0,-167.3796844482422) translate(0,-390.5381164550781) translate(0,-390.5332336425781) translate(0,-390.5281066894531) translate(0,-474.2106018066406) translate(0,-167.3943634033203) translate(0,-474.20892333984375) translate(0,-306.8613586425781) translate(0,-390.54302978515625) translate(0,-474.22552490234375) translate(0,-83.65908813476562) translate(0,-474.2225341796875) translate(0,-390.5625915527344) translate(0,-251.05728149414062) translate(0,-251.06068420410156) translate(0,-83.65823364257812) translate(0,-251.0657958984375) translate(0,-83.6939926147461) translate(0,-306.8515930175781) translate(0,-251.06410217285156) translate(0,-306.8490295410156) translate(0,-390.5302429199219) translate(0,-251.0564422607422) translate(0,-251.05984497070312) translate(0,-251.06324768066406) translate(0,-474.223388671875) translate(0,-251.06324768066406) translate(0,-306.8481750488281) translate(0,-251.06068420410156) translate(0,-251.06410217285156) translate(0,-251.0360107421875) translate(0,-251.07090759277344) translate(0,-251.07431030273438) translate(0,-167.35903930664062) translate(0,-83.6735610961914) translate(0,-167.39393615722656) translate(0,-167.364990234375) translate(0,-306.83624267578125) translate(0,-83.7050552368164) translate(0,-251.04962158203125) translate(0,-251.0530242919922) translate(0,-251.0564422607422) translate(0,-167.37266540527344) translate(0,-251.06239318847656) translate(0,-251.0657958984375) translate(0,-306.8498840332031) translate(0,-390.5328063964844) translate(0,-474.2140197753906) translate(0,-474.24127197265625) translate(0,-251.05047607421875) translate(0,-557.89697265625) translate(0,-641.6139526367188) translate(0,-557.8935546875) translate(0,-167.39138793945312) translate(0,251.07601928710938) translate(0,7643.35888671875) translate(0,83.66419219970703) translate(0,167.38372802734375) translate(0,251.04281616210938) translate(0,83.70250701904297) translate(0,167.35989379882812) translate(0,83.7059097290039) translate(0,167.36329650878906) translate(0,83.67781829833984) translate(0,167.36669921875) translate(0,83.71272277832031) translate(0,167.37010192871094) translate(0,251.05984497070312) translate(0,83.68888092041016) translate(0,167.3462677001953) translate(0,83.69229125976562) translate(0,167.3803253173828) translate(0,83.69569396972656) translate(0,167.3530731201172) translate(0,251.07431030273438) translate(0,83.67100524902344) translate(0,167.39138793945312) translate(0,251.04962158203125) translate(0,83.67781829833984) translate(0,390.5540771484375) translate(0,474.20550537109375) translate(0,474.2327575683594) translate(0,251.04153442382812) translate(0,306.8575439453125) translate(0,251.07005310058594) translate(0,251.04238891601562) translate(0,306.8583984375) translate(0,167.38330078125) translate(0,251.04196166992188) translate(0,390.5455627441406) translate(0,306.85284423828125) translate(0,390.5343017578125) translate(0,306.841796875) translate(0,390.5542907714844) translate(0,306.8307189941406) translate(0,474.2307434082031) translate(0,167.38308715820312) translate(0,390.5416259765625) translate(0,306.84918212890625) translate(0,-83.68814086914062) translate(0,-167.37681579589844) translate(0,-83.691650390625) translate(0,-474.2240295410156) translate(0,-390.5325927734375) translate(0,-306.840087890625) translate(0,-390.55279541015625) translate(0,-167.36032104492188) translate(0,-306.8626403808594) translate(0,-0.012769520282745361) translate(0,83.70612335205078) translate(0,-0.01149256806820631) translate(0,-13.199002265930176) translate(-11.3371000289917,0) translate(1734.6749267578125,3023.96044921875) translate(-2461.363037109375,-1828.4410400390625) translate(-4645.78515625,-777.7542724609375) translate(4909.57763671875,0) translate(0.010428441688418388,0) translate(0.010428441688418388,0) translate(11.47916030883789,0) translate(1410.32763671875,-373.3220520019531) translate(-6154.7646484375,-2971.265380859375) translate(-99.67195129394531,-797.3756103515625) translate(-94258.9375,7501.31396484375) translate(377525.125,0) translate(0,261016.109375) " id="svg_8"/>
        <g stroke="null" id="svg_7">
          <path stroke="null" id="svg_10" d="m277796.84273,262251.726615l0,-261l-18,0l0,120l-158,0l0,-120l-17,0l0,261l17,0l0,-124l158,0l0,124l18,0zm159,-189c-53,0 -96,43 -96,96c0,53 43,96 96,96c53,0 96,-43 96,-96c0,-53 -43,-96 -96,-96zm0,16c43,0 79,35 79,80c0,45 -36,79 -79,79c-43,0 -79,-34 -79,-79c0,-45 36,-80 79,-80zm157,-13l0,186l98,0c46,0 66,-19 66,-52c0,-22 -12,-39 -37,-45c20,-8 28,-24 28,-42c0,-26 -16,-47 -58,-47l-97,0zm17,15l80,0c31,0 41,15 41,33c0,19 -10,34 -41,35l-80,0l0,-68zm0,156l0,-75l82,0c35,0 48,15 48,38c0,23 -13,37 -49,37l-81,0zm293,-174c-53,0 -95,43 -95,96c0,53 42,96 95,96c53,0 96,-43 96,-96c0,-53 -43,-96 -96,-96zm1,16c43,0 78,35 78,80c0,45 -35,79 -78,79c-44,0 -79,-34 -79,-79c0,-45 35,-80 79,-80zm240,-16c-53,0 -95,43 -95,96c0,53 42,96 95,96c30,0 56,-14 74,-35l-10,-11c-17,19 -39,29 -64,29c-43,0 -78,-34 -78,-79c0,-45 35,-79 78,-79c25,0 47,10 64,29l10,-11c-18,-21 -44,-35 -74,-35zm298,189l0,-186l-9,0l-139,156l0,-156l-17,0l0,186l9,0l139,-156l0,156l17,0zm220,-261c0,15 -10,19 -49,19c-69,0 -110,32 -110,96l0,52c0,55 40,97 96,97c55,0 95,-43 95,-96c0,-52 -41,-94 -94,-94c-36,0 -67,22 -81,52l1,-15c0,-53 35,-77 93,-77l5,0c43,0 61,-9 61,-34l-17,0zm-63,90c43,0 78,34 78,79c0,44 -34,79 -78,79c-46,0 -79,-35 -79,-79c0,-45 35,-79 79,-79zm321,171l0,-186l-9,0l-139,156l0,-156l-17,0l0,186l9,0l139,-156l0,156l17,0zm170,-189c-37,0 -68,22 -82,52l-1,-49l-13,0l0,255l17,0l0,-116c13,29 44,50 79,50c53,0 94,-43 94,-96c0,-53 -41,-96 -94,-96zm-1,17c43,0 79,34 79,79c0,45 -36,79 -79,79c-43,0 -79,-34 -79,-79c0,-45 36,-79 79,-79zm241,-17c-53,0 -96,43 -96,96c0,53 43,96 96,96c29,0 56,-14 73,-35l-10,-11c-16,19 -38,29 -63,29c-44,0 -79,-34 -79,-79c0,-45 35,-79 79,-79c25,0 47,10 63,29l10,-11c-17,-21 -44,-35 -73,-35zm275,189l19,0l-35,-54c-16,-24 -25,-38 -42,-43c14,-6 22,-20 37,-42l31,-47l-19,0l-26,39c-20,32 -27,43 -58,43l-31,0l0,-82l-17,0l0,186l17,0l0,-88l36,0c31,0 38,11 58,42l30,46zm234,0l0,-186l-9,0l-139,156l0,-156l-17,0l0,186l9,0l139,-156l0,156l17,0zm154,-211c28,0 51,-19 51,-44l-13,0c0,18 -17,31 -38,31c-21,0 -38,-13 -38,-31l-13,0c0,25 23,44 51,44zm83,211l0,-186l-9,0l-139,156l0,-156l-17,0l0,186l9,0l139,-156l0,156l17,0zm-2979,170l128,0l0,-16l-145,0l0,187l17,0l0,-171zm254,-18c-53,0 -95,43 -95,96c0,53 42,95 95,95c53,0 96,-42 96,-95c0,-53 -43,-96 -96,-96zm1,16c42,0 78,35 78,80c0,45 -36,79 -78,79c-44,0 -79,-34 -79,-79c0,-45 35,-80 79,-80zm240,-16c-53,0 -95,43 -95,96c0,53 42,95 95,95c30,0 56,-13 74,-34l-11,-11c-16,18 -38,29 -63,29c-43,0 -79,-34 -79,-79c0,-45 36,-80 79,-80c25,0 47,11 63,29l11,-11c-18,-21 -44,-34 -74,-34zm307,2l-17,0l0,87c0,53 -30,85 -75,85c-39,0 -66,-23 -66,-72l0,-100l-16,0l0,100c0,57 31,88 81,88c27,0 61,-13 76,-49l0,27c0,49 -24,76 -72,77c-28,0 -50,-9 -69,-24l-10,11c21,17 47,28 79,28c58,0 89,-37 89,-94l0,-164zm262,232l0,-61l-24,0l-78,-171l-9,0l-79,171l-24,0l0,61l17,0l0,-45l180,0l0,45l17,0zm-107,-204l66,143l-131,0l65,-143zm324,159l0,-187l-13,0l-1,50c-14,-31 -46,-52 -82,-52c-53,0 -95,43 -95,96c0,53 42,95 95,95c36,0 68,-21 82,-52l1,50l13,0zm-95,-14c-43,0 -78,-34 -78,-79c0,-45 35,-80 78,-80c43,0 79,35 79,80c0,45 -36,79 -79,79zm265,-175c-36,0 -68,21 -82,52l-1,-50l-13,0l0,256l17,0l0,-117c14,30 44,50 79,50c53,0 95,-42 95,-95c0,-53 -42,-96 -95,-96zm-1,16c43,0 79,35 79,80c0,45 -36,79 -79,79c-43,0 -79,-34 -79,-79c0,-45 36,-80 79,-80zm241,-16c-53,0 -96,43 -96,96c0,53 43,95 96,95c29,0 56,-13 73,-34l-10,-11c-16,18 -38,29 -63,29c-44,0 -79,-34 -79,-79c0,-45 35,-80 79,-80c25,0 47,11 63,29l10,-11c-17,-21 -44,-34 -73,-34zm201,18l74,0l0,-16l-164,0l0,16l73,0l0,171l17,0l0,-171zm124,-16l0,187l99,0c46,0 65,-19 65,-52c0,-23 -11,-40 -37,-46c21,-7 29,-23 29,-42c0,-25 -16,-47 -58,-47l-98,0zm17,15l81,0c31,0 41,16 41,34c0,19 -10,34 -41,34l-81,0l0,-68zm0,157l0,-76l82,1c36,0 49,15 49,37c0,24 -13,38 -49,38l-82,0zm294,-174c-57,0 -96,43 -96,96c0,57 41,95 99,95c32,0 58,-11 79,-28l-10,-11c-19,15 -41,24 -69,24c-48,0 -81,-29 -81,-77l166,0c3,-10 1,-30 -4,-42c-13,-34 -43,-57 -84,-57zm0,15c34,0 58,19 69,46c3,8 4,18 4,25l-150,0c2,-39 33,-71 77,-71zm315,174l0,-187l-17,0l0,85l-132,0l0,-85l-16,0l0,187l16,0l0,-86l132,0l0,86l17,0zm237,0l0,-187l-17,0l0,85l-131,0l0,-85l-17,0l0,187l17,0l0,-86l131,0l0,86l17,0zm89,-123l0,-64l-17,0l0,187l92,0c55,0 72,-31 72,-62c0,-30 -18,-61 -72,-61l-75,0zm190,123l0,-187l-17,0l0,187l17,0zm-190,-16l0,-91l77,0c40,0 53,21 53,45c0,25 -13,46 -53,46l-77,0zm344,-195c28,0 50,-19 50,-45l-13,0c0,18 -16,32 -37,32c-22,0 -38,-14 -38,-32l-13,0c0,26 22,45 51,45zm83,211l0,-187l-10,0l-139,157l0,-157l-16,0l0,187l9,0l138,-156l0,156l18,0zm-3238,154l-17,0l0,86c0,54 -30,86 -74,86c-40,0 -66,-23 -66,-73l0,-99l-17,0l0,100c0,56 32,88 81,88c27,0 61,-13 76,-49l0,27c0,49 -24,76 -72,76c-28,0 -50,-9 -69,-23l-10,11c21,17 47,28 79,28c59,0 89,-37 89,-94l0,-164zm236,187l0,-187l-17,0l0,85l-132,0l0,-85l-17,0l0,187l17,0l0,-86l132,0l0,86l17,0zm237,0l0,-187l-10,0l-139,156l0,-156l-16,0l0,187l9,0l138,-157l0,157l18,0zm72,-187l0,187l98,0c46,0 66,-19 66,-52c0,-23 -12,-40 -37,-46c20,-7 28,-24 28,-42c0,-26 -16,-47 -58,-47l-97,0zm17,15l80,0c31,0 41,15 41,34c0,18 -10,34 -41,34l-80,0l0,-68zm0,157l0,-76l82,0c35,1 48,15 48,38c0,23 -13,38 -49,38l-81,0zm293,-175c-56,0 -95,43 -95,96c0,58 40,96 99,96c31,0 58,-12 78,-28l-10,-11c-18,15 -41,24 -68,24c-48,-1 -82,-29 -82,-78l166,0c3,-10 2,-29 -3,-42c-14,-33 -44,-57 -85,-57zm0,16c34,0 59,19 69,46c3,8 5,18 5,25l-151,0c3,-39 33,-71 77,-71zm260,-16c-36,0 -68,22 -82,53l-1,-50l-13,0l0,255l17,0l0,-116c14,29 44,50 79,50c53,0 95,-43 95,-96c0,-53 -42,-96 -95,-96zm-1,17c44,0 79,34 79,79c0,46 -35,80 -79,80c-43,0 -78,-34 -78,-80c0,-45 35,-79 78,-79zm241,-17c-53,0 -96,43 -96,96c0,53 43,96 96,96c29,0 56,-14 74,-34l-11,-12c-16,19 -38,30 -63,30c-43,0 -79,-34 -79,-80c0,-45 36,-79 79,-79c25,0 47,10 63,29l11,-11c-18,-21 -45,-35 -74,-35zm297,190l0,-187l-9,0l-139,156l0,-156l-17,0l0,187l10,0l138,-157l0,157l17,0zm141,-171l74,0l0,-16l-164,0l0,16l73,0l0,171l17,0l0,-171zm208,-19c-56,0 -95,43 -95,96c0,58 40,96 99,96c32,0 58,-12 78,-28l-9,-11c-19,15 -42,24 -69,24c-48,-1 -82,-29 -82,-78l167,0c2,-10 1,-29 -4,-42c-13,-33 -43,-57 -85,-57zm1,16c34,0 58,19 69,46c3,8 4,18 4,25l-151,0c3,-39 34,-71 78,-71zm212,3l74,0l0,-16l-165,0l0,16l74,0l0,171l17,0l0,-171z" class="fil0"/>
          <path stroke="null" id="svg_11" d="m276685.84273,263332.726615l0,-236l-37,0l0,100l-108,0l0,-100l-37,0l0,236l37,0l0,-102l108,0l0,102l37,0zm107,-53l92,0l22,53l40,0l-97,-236l-21,0l-97,236l40,0l21,-53zm47,-117l33,83l-67,0l34,-83zm241,-68c-67,0 -120,54 -120,120c0,66 53,120 120,120c35,0 66,-15 88,-39l-23,-22c-17,18 -40,27 -65,27c-47,0 -84,-36 -84,-86c0,-50 37,-86 84,-86c25,0 48,10 65,27l23,-22c-22,-24 -53,-39 -88,-39zm227,36l69,0l0,-34l-174,0l0,34l69,0l0,202l36,0l0,-202zm221,-36c-67,0 -120,54 -120,120c0,67 53,120 120,120c66,0 120,-53 120,-120c0,-66 -54,-120 -120,-120zm0,34c47,0 84,36 84,86c0,50 -37,86 -84,86c-47,0 -84,-36 -84,-86c0,-50 37,-86 84,-86zm340,204l0,-236l-78,0c-63,0 -102,36 -102,87c0,37 22,63 56,75c-12,6 -23,18 -37,40l-22,34l41,0l17,-27c19,-29 28,-34 52,-35l37,0l0,62l36,0zm-36,-202l0,106l-45,0c-36,0 -65,-16 -65,-53c0,-36 29,-53 65,-53l45,0zm422,245l0,-77l-31,0l0,-202l-36,0l0,202l-88,0l0,-202l-37,0l0,202l-88,0l0,-202l-36,0l0,236l280,0l0,43l36,0zm97,-96l92,0l21,53l40,0l-96,-236l-21,0l-97,236l40,0l21,-53zm46,-117l34,83l-67,0l33,-83zm321,170l0,-236l-78,0c-63,0 -102,36 -102,87c0,37 22,63 56,75c-12,6 -23,18 -37,40l-22,34l41,0l17,-27c19,-29 28,-34 52,-35l37,0l0,62l36,0zm-36,-202l0,106l-45,0c-35,0 -64,-16 -64,-53c0,-36 29,-53 64,-53l45,0zm398,202l0,-236l-36,0l0,100l-109,0l0,-100l-36,0l0,236l36,0l0,-102l109,0l0,102l36,0zm108,-53l92,0l21,53l40,0l-96,-236l-21,0l-98,236l40,0l22,-53zm46,-117l33,83l-66,0l33,-83zm201,170l138,-236l-42,0l-67,114l-67,-114l-42,0l88,151l-49,85l41,0zm339,0l42,0l-56,-87c-15,-22 -22,-30 -32,-34c8,-4 15,-12 29,-32l54,-83l-42,0l-45,72c-14,20 -19,27 -40,27l-27,0l0,-99l-36,0l0,236l36,0l0,-102l30,0c20,0 26,7 39,27l48,75zm133,-53l92,0l21,53l41,0l-97,-236l-21,0l-97,236l40,0l21,-53zm46,-117l34,83l-67,0l33,-83z" class="fil0"/>
          <path stroke="null" id="svg_12" d="m277100.84273,262117.726615l136,44l-82,113l75,54l80,-109l77,106l75,-54l-81,-111l130,-43l-28,-88l-131,43l0,-138c-30,0 -61,0 -92,0l0,138l-131,-43l-28,88z" class="fil1"/>
          <path stroke="null" id="svg_13" d="m276455.84273,263142.726615l-71,23l43,58l-39,29l-41,-57l-40,55l-39,-28l42,-58l-68,-22l15,-46l68,22l0,-71c16,0 32,0 48,0l0,71l68,-22l14,46z" class="fil0"/>
          <polygon stroke="null" id="svg_14" points="277009,262933.5577919944 277009,261990.55779199442 276780,261990.55779199442 276780,262508.5577919944 276389,261990.55779199442 276252,261990.55779199442 276252,262933.5577919944 276481,262933.5577919944 276481,262414.5577919944 276871,262933.5577919944 " class="fil2"/>
        </g>
      </g>
    </g>
  </g>
</svg>
